<mxfile host="65bd71144e">
    <diagram id="Gw_wO1BdgpLvoN9mJ5I8" name="Page-1">
        <mxGraphModel dx="1949" dy="994" grid="1" gridSize="10" guides="1" tooltips="1" connect="1" arrows="1" fold="1" page="1" pageScale="1" pageWidth="827" pageHeight="1169" math="0" shadow="0">
            <root>
                <mxCell id="0"/>
                <mxCell id="1" parent="0"/>
                <mxCell id="46" value="" style="rounded=0;whiteSpace=wrap;html=1;" vertex="1" parent="1">
                    <mxGeometry x="40" y="120" width="760" height="360" as="geometry"/>
                </mxCell>
                <mxCell id="7" value="" style="rounded=0;whiteSpace=wrap;html=1;fillColor=#dae8fc;strokeColor=#6c8ebf;" vertex="1" parent="1">
                    <mxGeometry x="240" y="230" width="500" height="220" as="geometry"/>
                </mxCell>
                <mxCell id="14" style="edgeStyle=none;html=1;entryX=1;entryY=0.5;entryDx=0;entryDy=0;" edge="1" parent="1" source="8" target="11">
                    <mxGeometry relative="1" as="geometry"/>
                </mxCell>
                <mxCell id="8" value="Model" style="rounded=0;whiteSpace=wrap;html=1;" vertex="1" parent="1">
                    <mxGeometry x="579" y="345" width="90" height="50" as="geometry"/>
                </mxCell>
                <mxCell id="12" style="edgeStyle=none;html=1;entryX=0;entryY=0.5;entryDx=0;entryDy=0;" edge="1" parent="1" source="9" target="10">
                    <mxGeometry relative="1" as="geometry"/>
                </mxCell>
                <mxCell id="20" style="edgeStyle=orthogonalEdgeStyle;rounded=0;html=1;entryX=0.25;entryY=1;entryDx=0;entryDy=0;exitX=0.25;exitY=0;exitDx=0;exitDy=0;" edge="1" parent="1" source="9" target="19">
                    <mxGeometry relative="1" as="geometry"/>
                </mxCell>
                <mxCell id="9" value="MovieClient" style="rounded=0;whiteSpace=wrap;html=1;" vertex="1" parent="1">
                    <mxGeometry x="424" y="265" width="90" height="50" as="geometry"/>
                </mxCell>
                <mxCell id="13" style="edgeStyle=none;html=1;entryX=0.5;entryY=0;entryDx=0;entryDy=0;" edge="1" parent="1" source="10" target="8">
                    <mxGeometry relative="1" as="geometry"/>
                </mxCell>
                <mxCell id="10" value="MovieProcessor" style="rounded=0;whiteSpace=wrap;html=1;" vertex="1" parent="1">
                    <mxGeometry x="574" y="265" width="100" height="50" as="geometry"/>
                </mxCell>
                <mxCell id="18" style="edgeStyle=orthogonalEdgeStyle;rounded=0;html=1;entryX=0.5;entryY=1;entryDx=0;entryDy=0;" edge="1" parent="1" source="11" target="16">
                    <mxGeometry relative="1" as="geometry"/>
                </mxCell>
                <mxCell id="11" value="Prediction" style="rounded=0;whiteSpace=wrap;html=1;" vertex="1" parent="1">
                    <mxGeometry x="419" y="345" width="100" height="50" as="geometry"/>
                </mxCell>
                <mxCell id="17" style="edgeStyle=orthogonalEdgeStyle;html=1;entryX=0;entryY=0.5;entryDx=0;entryDy=0;rounded=0;" edge="1" parent="1" source="16" target="9">
                    <mxGeometry relative="1" as="geometry">
                        <Array as="points">
                            <mxPoint x="370" y="325"/>
                            <mxPoint x="370" y="290"/>
                        </Array>
                    </mxGeometry>
                </mxCell>
                <mxCell id="21" style="edgeStyle=orthogonalEdgeStyle;rounded=0;html=1;entryX=0.75;entryY=0;entryDx=0;entryDy=0;exitX=0.75;exitY=1;exitDx=0;exitDy=0;" edge="1" parent="1" source="19" target="9">
                    <mxGeometry relative="1" as="geometry"/>
                </mxCell>
                <mxCell id="19" value="TMDB API" style="rounded=0;whiteSpace=wrap;html=1;" vertex="1" parent="1">
                    <mxGeometry x="424" y="150" width="90" height="50" as="geometry"/>
                </mxCell>
                <mxCell id="28" value="" style="edgeStyle=orthogonalEdgeStyle;rounded=0;html=1;exitX=0;exitY=0.75;exitDx=0;exitDy=0;" edge="1" parent="1" source="16">
                    <mxGeometry x="0.1652" y="15" relative="1" as="geometry">
                        <mxPoint x="130" y="338" as="targetPoint"/>
                        <Array as="points">
                            <mxPoint x="130" y="338"/>
                        </Array>
                        <mxPoint as="offset"/>
                    </mxGeometry>
                </mxCell>
                <mxCell id="16" value="BechdelAPI" style="rounded=0;whiteSpace=wrap;html=1;" vertex="1" parent="1">
                    <mxGeometry x="260" y="300" width="90" height="50" as="geometry"/>
                </mxCell>
                <mxCell id="27" style="edgeStyle=orthogonalEdgeStyle;rounded=0;html=1;entryX=0;entryY=0.25;entryDx=0;entryDy=0;" edge="1" parent="1" target="16">
                    <mxGeometry relative="1" as="geometry">
                        <mxPoint x="130" y="313" as="sourcePoint"/>
                        <Array as="points">
                            <mxPoint x="130" y="313"/>
                            <mxPoint x="160" y="313"/>
                        </Array>
                    </mxGeometry>
                </mxCell>
                <mxCell id="25" value="Actor" style="shape=umlActor;verticalLabelPosition=bottom;verticalAlign=top;html=1;outlineConnect=0;" vertex="1" parent="1">
                    <mxGeometry x="75" y="295" width="30" height="60" as="geometry"/>
                </mxCell>
                <mxCell id="38" value="1" style="ellipse;whiteSpace=wrap;html=1;aspect=fixed;" vertex="1" parent="1">
                    <mxGeometry x="180" y="280" width="20" height="20" as="geometry"/>
                </mxCell>
                <mxCell id="39" value="2" style="ellipse;whiteSpace=wrap;html=1;aspect=fixed;" vertex="1" parent="1">
                    <mxGeometry x="399" y="200" width="20" height="20" as="geometry"/>
                </mxCell>
                <mxCell id="40" value="3" style="ellipse;whiteSpace=wrap;html=1;aspect=fixed;" vertex="1" parent="1">
                    <mxGeometry x="689" y="250" width="20" height="20" as="geometry"/>
                </mxCell>
                <mxCell id="41" value="4" style="ellipse;whiteSpace=wrap;html=1;aspect=fixed;" vertex="1" parent="1">
                    <mxGeometry x="674" y="395" width="20" height="20" as="geometry"/>
                </mxCell>
                <mxCell id="43" value="5" style="ellipse;whiteSpace=wrap;html=1;aspect=fixed;" vertex="1" parent="1">
                    <mxGeometry x="424" y="405" width="20" height="20" as="geometry"/>
                </mxCell>
                <mxCell id="44" value="6" style="ellipse;whiteSpace=wrap;html=1;aspect=fixed;" vertex="1" parent="1">
                    <mxGeometry x="210" y="350" width="20" height="20" as="geometry"/>
                </mxCell>
                <mxCell id="47" value="" style="shape=image;verticalLabelPosition=bottom;labelBackgroundColor=default;verticalAlign=top;aspect=fixed;imageAspect=0;image=data:image/png,iVBORw0KGgoAAAANSUhEUgAAAMgAAADwCAYAAAEydhvIAAAACXBIWXMAAC4jAAAuIwF4pT92AAAgAElEQVR42u1dB3wUdfZ/29IDCYSShJCE9EKAhIAgHURpgoAiigXUA3s/vdPzPLt/9Tx7OQ8UAem9ioAgNbRACIGQEHoHaSFtd+f/3mQ2bDazuzObmd3ZZB6f95kwOzO/8n7f3yu/pgEbmlV8ZKuJYZKgHmRmmAnjEtotsPxfY/3j9EMlDN9LjAsJlRlNgx5LiV9Jf+utf7hhNIEUxDBsaT7DP5PqJFImUSJEJvPN8tdKpNxotpszsZVolYbjkth+BhsEvJWdDm/t2I+/MU6rzE5J+KsrMSQYHk6Orfn/91OnwIP3P2iviI4TqTDVfumTWzvY/cjU6VNhzJhx+DHGaSLaWolgScqt+Mn1uxxWyaxZ09iMVZjMddls5k+k3GjEhGqzhYrPnYc2z7zM/t0pOqrm/qJ5M9jMVTh4t1YilZgrW37w120Q+fRLENeyBZz4/CP2uSUvPlOrRCsXzcZngSvVTeZPBIvIxye/+LjmGUtpbCWxdukcqLJ5T3BJiEcu21zzcUtpTnJXa9q4fD5UYYmquPd4W1eVyWxXyJ0GDK9zz5Jg2qtvQP4Hb9WUtNOAEbVwVKuDvH3BBqd94cQ2QXBX50517kc/9wp2JTczmd5veOGqu3rW7buMZicoRv7y2DV4eurLTvuu/HWL+WVC3YYjNnOc0HuoqM5Sa9tzCuV2PYe4mAgjjqN72E8optedBbyCJ+o2a61oRXhs4/Ja/w+NS4N9z43XgEquEFtvqbFxC/GSYrm5v6Q4Ce9NxD+/xb9F1y2+y1i/p8cbOXjNlrMkeksCjnJMObNtofj8Udv7tt+w/K61vsHzsVotky8jdI+7z9u70m/WfdcxR0XGhy87KaXRnlz0Vh+JFlvX1iXjqYWRloT0YlqMkHtWGViAv7PP1KnjGUUlf9a3Nd0XHxtaBydyWPXjEmI1vOpXSqveFieyWPV2E5HSqrertKgkFr5hxWWmah6b0BZ2b97A/d/skB2UhL+63rslo+bvCb17wMPfTYaHyKp3pbqEWPW3paeCRqOBnzirXnR1ldtY9XzU8bV/Vbd9TKjaqjfzst1EbK3yR9fk1PzW8onnIeKpFyH33X/eBBkmtHDuDIcWfZ3qqjTVbTERT74A7987Gs59/Sm/1sOEViycDf2G3S2suvgs+l748kM9u7O/N5v0LIRjaU7YGNuU0Nolc3gt+jrdyl1LN/E2/vNnTsL+HZvg4jf/qblXgk5Rz3f+zwZPDHS9YyT794Kht2p4S0JWPR+HtAiHlf/4e60PxnJO0ctDbge9TltTupyV87HaHZTEmVVftH09FL37ep37Z65cgWGffAGnL1+p6SJOfvkJfwfpyKqnX6KzekHc396GitKrTmwgjSNb2LlF37ZzL/AJDJbfqm+TiQkFBMlv1Ydn9ga9X6D4RNDPq2JA+L+IzpRQQB290LbH4EBQqV6EttFBK37GmU0l1j7T89xsLYsh4cwHsWe9W9/n+4bFTNVaW/R2TNG2Nta75f44q48b8f9zeDK21Bonx6zYlsbbsXWnWX1Mj/+/2yqBidwzw2oSIYvewjzfW+XIquerOnIDuXs/1+mF7Xxoq8U6t6mOO/CygoJF3K377cjsAbsCn1JY3DVQr9vqqsEtF41pF6Ox62Hz0Y+FxcLyzwh9SGPdD7vgKVgC50zhIykJSQ6N1Fqmd5W5Hu4J33+lkavZTqjbQUHk8YYYdxeEz6JXAlbsWWz2JcK6juKzTubZu1ZOGdEb8xbB/37/Ax554GGHwy1CpMmILUiFyeRUCmTiPdcxEaKCAhxm4IVBt8Hk9Rth8rSfWJt/3NgHXJau6ILYc+Yt9GhaO2jfvKmgxEMCAmp5StNnTmMLNPqecWzOGAkwZl8iZscF+SqviLWF/9s3y+4zYY8/B34GA5RVVoKPXg86rbZWgebNmc4WaNio+wR3yYyjSC0fPbx6m6AvpzZrAi9nJsPHy1fBf1b+Vu3it42CpS89U+dZyyASf5NhYOCIMU4xhNVbOPW2rkmCC3Lfyq2CJZ4UGgRvdEmz+3uzic9CgK8POz5kLRV7BeqDzrzdoVEsyMw7ugkvyOhlm0XhkYIoi4fdWqtJVRqNvOELR5KxLlD3QaPrNDkqyPwh3YUX5M4lm1zqWL7p3xki/H0EPdt80nPg72Pg/c2I0tOT9LBAWbePtP6pECtMeEEGLfyjXvrv6oFdsPGVZ1x+/1p5OSS//DrbKVj63YwBI9iCrBjRU7it5Wwo0xkFJHaCgQv+gMPbf4fy61fZnuvZ2wfApP59oGWTYDCintpz7AS8tXAJbDx4CCXjwxs9sw6e7F2zqPY9IRLpO/d3SS2Sozs2OI/0CCAsSOGJzz8SLhETI61l1SarJ3s9vmM9VN64LrkNZr8gZpCFIjJ7s9eTO9dDVZn4AvkENRVXELPMtm54Vi/2epotUKmwKJneAIffez0JVFLJfeTK0D3Z5CFcSOaUOzKJaUY4S0+fFhunYewMmlvRW/gRy4DSA5bAlSsV4SKddJae3roQrkyusKm5d/Hydzs/s1MbbJ6/SMax9T0xecD3u3F/6vQSit+6v/4e2TJl6FOeZ9vhpdhiO2LmL1m+YYkcWuKldtKiUdmfLIXAZ816B5kRXEP43uP2nsffPuWxM0qsHKiL+Mz7eH1NYFq8YW29q2K1oSZiHt5/uIgNPWKm9Jz0/kZM8V+OBmNeVjiRujDNLipjJcUfYiIfWCVG7T4Xua2dWqVRZp1V5U2wyehyO8Behs8PxecoxKPlnjfgPaNWsn6FqZUwtfkgexLG+1SBVda4sCrEUQfvDeWuOqtnqnjn2FjT9EOH70Wz+VtPBxl1Gs3+MXExt7qkEGcfPsI4C8G4m65VGpMfTY4/KBgjkw8Uj68yMSJblvzkp9MdsFf5vAVhNMz7VYxZthLUZ3xEVK9lRGmYFTQ5VYizqrcXeNC6WhDGM82OtyA0wV6r8a75wnabllamcjBuLQg2Sq3EbVjuRmZHInWblqtZoGZq0Go9hBEHEhFaIH+dDv7aKZn9e/TU2dA+Nc2TGBGvFG+Lag29IlrUur91x3YwY0+YnpIqG7YcYIQR1Xze7ZoBPjr7TShn1w7WFU1NTnGfRGiQ02JOOipOkEEPb2Q7bzIUsNZjU9uBhaFxj6SkFDcVxEk0gsYuPuvZSbjEsPOgghDt3L2TVbhSF8Zur+VIH4rtwYL9fdlvWmjPnl3sDIbExBTJOmQtv0QYFif2mH5fefSMoAQOnj4DlTyzKPL27oYDB/c7Xe1ly6LB7kyxLyw5CX3btARfOwB/Z9FS+HbNevbvW+LbQU5xSZ1n8vNy2QGcmPgkucAubPrGM+t3wnf9ai8P6vrPd+Hkn5fZpvPp/WNgzC3Vv9sbAM1HyZiw2cXEJ8pjoggxtaxFbRnJLa+qgqJP3qs124GorLLK7sDngfw9YMKKi4lLkr77FWozjl2xGf5YsYAdgT3Bs4rUQkM6toe1+w/Y/f1Q/l5WabZ1sTB2u1+hBdFqdQ4L8P6S5fDV6nWs/tA4cQ2KC/LYJhnlQmHsFMQsKjo9Yc12mNy/Nla+/m0dvLd4OYu0qRMnQP+0FJi5NQdemjHH4bdKDuxjI0uR7RKkaFriwuzXKow1sxanb9oKr8yax97/4sGxcFfnzJrn7r2lCzzx43QI8HE8oeDIgTxWguGxifWVCCN6vGDUss2wbcU80CBW3rl7BDzckz8Mdenbz9jFIs4Kc/TgPraZWReGkRMj1tTp9pGwdNitTp+jwjw/bSbMydnJ46QxbM9HEwiOF+azU/9aC5AMb36HLPrjDP7QypXeg5bcrBrRS/DzZ69chQn/nQL5J0+xM4eKP3mfvb9q7z545IfqkYPw+BRoFVNdmGXDewqPa9Vn9oZOo4UhSzbDsmHdBT3fqmkTWPbSs3Xuz9y6vebv00UFrDXVIjpenK1ltlr/4gqb0GwftHgTtHryBVGV8NB3k2FLUTH73up9+2v9drooH84eOSSuad02fwNZhK2gnkTAz1+zkDX7o5s3g3/ffw90iWsHBjTpL16/ztb6+9hFU+GFhp9OfvGx8Cnl/eetr1dBGBuFWbB2oWR+h72CyNK0GCs2mYyQ1He47FEUrb0alZLNZhMk9r3T/QWpr0TsdQDxfe50s0QYediMhYnrfac7JSIfk2Rie93pNoyUMDJgxRozMS4UhjGZxBVk85i+3cSsfHTln9lshOhew0QVJKbvcKOognDUXO4uk0HJCClM9XNDSzff3ccAKqmkkkoNglyZnBnB/VlumfkmJ1ml53hyJvfwKLy8Zc/1pU2lrF0C7krbWQ5yQ2WfFFLxelfXxyuNtA0FI9ZNidbqa+vZnsvx4munedpO2qSQiG00YQo+N0FgWt2svr3FOuO76lkIxl4heJ4dz1MIovH4W76A96lSNnM8TrKmxU2WtKbnOS6388pka0lx0lpk+ZyAJK0nXT9p27SyeIB/Ax8MFIM1m50h3sSLn4P3Prd6bwRPhfBV2hm+tJxJ5DeRwikR+fwzmLEC5CwuYzR7VOegEAarMFWgPbBXItsO1c4UmbE/BD7nw6VHRBNWdlhNXtZiYeypBMs7x/CZG/YKkoc/dq4nXCKFPITp0JxfmolN/u6XyFE27d+ZxdE2JTYeCkqKeAsiBfUX8zAWiPZaXcw1mxgxTVNTPUtMMEZc6cHeQm7NdRxN7XXVPHvTHBFQcI29LRalKoh1k/wH8mmhuge5FPmsSFPpIatvLJSsIFhLO3luRzlY/WB9nwbkW9qzAOykN9Xqv8OxMH4uTcH8qbC4S4BBv02J81AZhUyAv1ZhTJ2QHF8gu1/1S1GJ11v97izAffGxGtkE8uPB4t1ajaajGh8QLmQTw6yekBQ30BWvyikZzeZwuSbMMw1UUGaGEbWpsiiBVJnlm/jfULszs8hdGkQiRBqBMAwDjYVkFUhjQIjU1prMCFHuoiulgk5xXRajfCjIWgKxk/fqLRBP6QOGS7tfm1bQI7wFvLV2E+iahipOP8kqEE/qEFq9lRQSDPfGt+VdwXX6WAks3rkAbuncBTJS0+qPTIkEy8iLEPfoEJr+HWzQwwNJMU634rRQVkw0LNm1B7bt3A5bd+RAVxRManKqxzpNiyBkFgigQBjJux5SfMNiIuosvhRDPZISaqba0pKOHBTMNhRMdlY2JCeleKzLklUgZqu1la7oS3qVpstnNA/B1h/tcPGoWEoObw1VRiP4Gm7O4iLB0LrN7SiczMzOkJyY6vbgo7wIcWElSS2B4Mti1pC6lADvbQ3s3r0TdqFwOnTMhCTsytyl/MUmoxXXZZnrxbRI9/Hfd8pW+IRWLZ3ISwN79+yG2TOnwYED+9k1V2LOBORjWiPvkM0y+iGuLlGyrZTH1++C1b+thKK3/16vby3YsRuenjpD1DINSx727c2FPBROeodMiEtIlg0xYr8q2sqSysbq13cgLCk5BcNiIwQ9T+vFxn8/BX7Ny6+18SxtUvvEgD7w9ui72P+3ePy5WnrEmWBoafC+PbsgtX0niGXXOjOSdkuyCkTs+lBnNLfoOAyIagX++rpzNFbszYNJk6exm09bds2uMpkgIjQEpj/xGGREteH95uxnJsED3/xPNGoL9uXC/rzdkJzegV2ELhVgZBaI4y7LFdg/smY7fN+7Ezw1dTosRj/CennoDWz9dKjcx2PvFvy9vinJ0MTPD66Wl7vUnR7M3wsH9u2BxLQO0JYQU0/JyNtlmRiQ2i+kvn/ShlxgYtKgZdFh+HnSI5DdLtalb/1rwWL4fNVau4v9xQjm0P69UJi/B+JTMyAqLtllB1NehNCicpmsRQrL7Hz3TQg0CM/Sv1f8Cu8sWlaDKkIoCWPmU3+BHokJDregFyoY2hegCIUTl9pB9HJ6VwQiqr2PXr7Z5fXTQjP/fMcE6B4exvs7nVbyysy5tZQ2bdzzv8cehiEdM3jfSX/1Dbh8o0win4KB2JQMiIhNEFOmwrmDuyfJIpCRyzafwVzJJhAL0S5KPw3sAnNydrB7KPjqb6KGlPznD45l91cQSnRAY9or/6x3V2YtmOik9tw2B05PaS9cMPRWeQQyfOkmWRFiS5fPn4E9W9bD+2NGwsR+vev9vdKKCoh74W81O0hJIZgoFEzrGPuCYeycwiGJQIYu3uhWgbCIQHf6236ZENNE+sMnyan8ZUsOux+AvQNpwkOawjfjx8GfpaVwW3r13me2m4WQYNokptVsP2FjmBUuHd5DHoEMFrAHh1whIpq7PCCYgRf79QQlUIsnnq/VlVoEE5mQbruVRuFynuNdJLGyzB4ejPvtGp1tvAX2/LES/jm4PzzWp5db05+/Yyc8PmU6iyhbYVisslNF+XDq0D5oXVcw0iNk4AJpthKRgjRaHRRtWwvl166w4ZNRXbLg7VEj2E1hXKV9J07CR8tWwYo9eWwXZunGGHAxhoeICYtOKNzz8iS5EKKg8WqTEWKyeoGWthTKWQfLc/NYtu0+zYy5eo9MLu/k2FJFWway+MjHpvW77Avj9y8eL5bPMeTvsjwrJBPtL0CCwW6kBAVTcf2qdX2w2y7pvGg9pV4cApU7qYc2VSHB0M5KJdvWQeWNa+CN5FVKXSBkoG3n3qyOObZ9nSTHrnkFQhQvG9QxkZk9WcEc375WluPjPI8QL+wCaA+byKxqxBzPWSP41DjpzEGNnAgBryXa5ikyqw+rY04gYtwlmBZJneCEiOdF2R8oj0fl3FPLHWw2myECBUN7dxn8A2UVRtOoePBv3voB2RxDom6z1obj5RQ0EKKu7CR2ZcbyG5J9U2fwgTbdbqfuMmTLmH5XZBWIjXBowf8k5GhvF4xWp4ejfyxjdY44FaEB3yahEBKTDH6hLYvNxspvUAjHQCWVVFJJJZVUUkklJZnhcieQGhtHZvE3NrdX7y8pHthQKtHVQ5/thk7wg33wsq6e+bI+zNzGwa9DJhULdvwhFMYLEghDJYmIEPKend/ovLLR2OovKLu7iNchCIOh+kRxGu/fY7sDoD1KiY2jWGw//LMn9y7F6GmPq9/wG8c8JRC+7UT3Y4b6eKg/DuQqRiDV6RFjkI86+P5/8PKsgHxY/jRiXRgkLN8Y4N/OMgXTOWAv/F7mIWG8hJeP3Kl8OSrnhEhTVsJtGy33ng+37WV90qc02trcvozfDa2l1AUqYlkpDVskwy+Mc5jhVnYKeBns7FDJ8+xYntv/wm+/KVB43yFPcFEQNHeV77SKvpj+73WsLB7qLHBXStqUNUMKgWBivGawPWG4QHy7N9OOnW/aSVcjESon4uVbm9tV+H0fu2ZvPWiVhCDJ5Lm3XKqPYwXs4LqMaBsr017DI2PmZXzvx3oI4zxebNdWPIjf/NmhH8JDO/ClbDf3WnzGhaRTRrBMMWiVYZmZw1B722M+ooqcgpU6Ba+V+K6vSGHYE3SeU8fQEx48Dx3huddN6kT2lxQZeRSrdUXSuoffbW774P0DKJRkCbKwG791Bb8VwusYKsilmMdzL5qLIthWGt0/J1Shc+9U2fAxOyhab0d/uHJwb1fuW7a7sDfldpHuqViBYMbJ9+CbCLvOsqe31d7ehCaxO9Uc4HoEC0fhtz6xI7yveW5fFFke2k88h/u7l53GswHTui6lUpdaKPGYQdIbwQIrmA4+eErgt9vjtyug+iwAC73AhY6c0XV8P6yeZaNy0db9dDar9d7sgVwjG4TPrNSKULD1iQbYko+DjDfhYG7rk1BA8hbLTvbI5Nk+jfduF6r/SDFz36aF72ec5JsOLcji0gqWsNFl81heRCtIMC4r7+8LisKCffQfajXQ32RmmkLjJo1eq7loYphVl8qq/vZkeuIVlz/kykuzDh/J0Wk02UqrFaVsxG80M+vGxsX2c4tAZhaXXNRqNM08HmtROGGvcfS++NgYWQXy08HiN3x02n95e2W5q/FUmMx/GZ8U91/ZBDL9kLxHVTQ0lNEBzQ8kxIpyLQSbvW/m5PmYGLVjEtmYNHDnBwCLX5UeIf+3uyC8ZaDPKWXCgnFaHLcofJ4kTpdWBP09K61UcoTQ6imzWRnb4HlTp6cBmRbs0OZlJrXHctJo696TbTN+9lz3Bq5D5Cid2PlOggViZjy4CpfxTGVKQnJtE8vqEMk2qG9EJ+yATAIhk1c1e2UHiBiEeMnGAZL1koyyBcLqEC+TCOOFghUuELKyFKo6ldyTyosQxpsqllEIShVkZXlFB8fIWwKzXGYvbQQm9OOMW7sEhkWuXqEHLMq2szW7LYWCfAo6l6N1gB+MSWgLwXodvLurAHQKPGNRNh1SHctyz/7njohOa+vSshncGRNZ6/5nP/wXXpz0OLvTdaNwDD3ph1C3RF3SyHZtIL0Z/3wK2uLiq//9Fx6f8BiYpBCKVFEJs0wIMdcJv8svHdqgPyLQD8YlxUCor49Ta4Y2xPx2yg/wl4cmSCMUCXoDk8hdxkTqEPdAhLqlbq3DYERspOB3LOMOhJTvf5oMj3pQKNYAk9EPkTf8Thn3wW7pnvi2kN5c/DQvg9UpPSSUH1AoEx4c71GhyGtlyaRDCA1tggJgfHIMhDjplhxRoI8PVBiNtYQyeeoUePiB8R5GiowDVLYfZ+opCDrZ8652bSQpeFhwEJz883IdRf/jz1PgwXEPe0woigqd8D2ux0q6LykaMppLO/u0bVjzOgKxCGXqtB9h3P2eEYrY0IlWTOWaRbLtfoe9I1vAB90zJBcGER29alfho1CmTf+R3QDTogvdybIIpL6ZIqcyJbSJbC0xvY3j8xBJKDNmoFB02prItTtYtqNXycEhP8RVZpA/yy2UTSDJEeFOFahGo4WZM6aigaxjy2Nhs5wsG0IkaC3kKmw5c0E2gZgEKDlCyuyZP2HJbyLF1X9CegbZEEJltZi+9eEpBUckFwadXxj59EugF3gMAumSubN+ZreIrU9ZhO4VLIuVBSDNVuN6rIwHVmyEoSEGGNOtq8vfuV5eDg9/PwXW7T/Ano3rZxC3HQkhZR4K5a57xslqfXmFpx7o7w8FOj+X3j105iyM/ep7OH7pT/boIRKGmTvnnU7XOXf1miihLJg9DYbLKBTZECL1JIeSK+L2Xl+WuxcmTfkZjCYze0IOCYMOK26NQpjx5F8gLTKCPffw+WmzRCNl0eyfYdio+9ltyKU+Lbr6m3J0WUy1py7V9BgDdvdHr5ZCtJPj8D5Yshw+Wb4afAx6FgUkjLLKKuiRGA9TJz0CTQP8a569K6tTnYMohQlFC0vmzYAho8aC2eTZMyA8Ouvku/xieK9b3b1r6Oz0x374CZbtyWPPC/TlzsclQUzs1wveu2ckf2EQNXqta0vvCSnL5v0Cg0eOlbT7km+ytQzBxaPXbrAZ1nJDr0fOX4B7UT8UnzvPtvIATj8QMj++7264v/stTr95Z2YH7N7yXBbK8vm/wB13IVLM9ReKrFaWs4+7MrZOca1/o7OY6WOGRxARhAzqkkgYpB+aBwXCtMcfg8yYtoK/+drwobBk1150MzQuC2Xl/BkwUCqhyGplyRB/33v+MszZt5sVAAmDhJIVGw0znngMBRIk+nt0eLEJFalW6/p5t+Sn/LrwFxgw/F7RStltZi/bZcmkyBLbZ9KKVegT3gw+HXevS4vnj1y4AEM+/hwuXS+tNVjlslBQ0f+2aBb0Z4XiviixKIHINWBYiejIffkJl949gf7IkI8/g7Pof+i50zkrqozgg0LR1HNaEL2/ZtFM6HvnPS4jRdGxLHusw/7+pY17RGX87JWrkPn629D5jXfgIqJCz3V3/VKT4fw3n8LTA/tJ0lhIKOsWz2a7MVePWZJPqcs4pn70WimcKi2DiEB/h89dvH4dBn/0GXZRF1nnUM8hom9qEsx6amINKl4dNhj+veI3FilSCOV3FEqvYXeLRop84XcJAouOmGaNPLN+t930r5SVQa93PoTUV95gRwZJGCSIzrExcPKLj2D205PqdFEb//FXySbO0bc3LJmDV11N9y2MZRwxFJcR8UxC+Ty39uahpRUV0Pe9jyDhxb/D4XMXWEGQJZUR1YYVxMLnn6xzmHCNsRDeGsb3vlUyFJNQ/lg6m8wwUY1NJqVOQRON7HN51544B8PbRUBLPwOM+M9XsPvIMbbCiUkQHaOjUAhPsU6jEHr/nlGwC7+Rf+KUZELZtGwOdBs8Ghiz9HanYDNkyOKN4T5ajVuOy2Ow0FtXzAedxuJbmCA5ohUse/FZCPZ3LUp824f/hoKTp6XLIzbMWwbf7fBUN2q6VSYmaNnwHqWSd1kA7jv8kfqv7kNG01l2ENW8GRz86G3Y8PorLguDaPUrL8BDPbqxDqhUSNm6fA7+YX+QyxUdIhghgxZtDDe4CSEWCgvwg//1y5T0m8cuXoQeb33IevNC/RR6lvwJ0l/WsTcLUrIH2e++qkzmoBUjepZKL5CFf4Tr3SwQotaBfvB9vyzJv7v5UBE89r+prD/jazDwVoQRK/mR3j3g0T49oam/PzQLCoS/zZoHP2/aWrvnwOc6WwnFGhRVDBO0Sg6B3LGABOKZI1eDDTqYMaibbN9fV3AAZm/dgcr/KFxAP8dEg2A6LXw09m4Y2bkuQmn83hZdDGOGrNtH1fFTqsxM0K939ZJeILcLEIicBlh5+Q1YOqI3+Pv6gqdpTX4BPPTdZF5FnzlwVK3Yl5ERJxBRs06kmoXhCvv6BcBtc9bA3G05HhUGDSXzCcOi6Hf9Oo+dYuRq6ESRVpY9Dg5uAt8cuQIZr77BOozupiaPPQUTJ//s1PrK/XX+TaHIFjrhZr97mg2+ftAysydEP/MyDP/0S9kEQxMm4l78GyzcuRv+MXchtHjieWji7y/YJN5DQsGrWS6zd8D8DeFajXLOUa+qKIcDG1ZgH01LEQLRIx8Jw7M6ua6jqqpgxuZt8J9Vv8HJS5fB38dQ0yvUJ4jf/YEnguZ0aSe9Uu8/bz0KRKMYgVdHrdkAAB47SURBVBBijSiUg3+sRP9RV1OpFFLpmZQAQztlsIHHiNAQ9h61WkIYTZQ4d/Uq7DtxEtbuPwC/FxyEoxcuseMoUkSGbckvqElQ8ftvyLDnIihn52iLRafz8YPEHrdD4aZV7JAtzV6kLmL9gUKW2Vn3aIYyljm22PzIqaPKt3buLGiQhUQOkokKv3uKHVl0Ol9/SLj1dt6YElU6edcUmKSpRDR5gv6v1Shz1weRSt0ey//PYeooMUJKXPeBDgN93kISWFmeRU9N34tIIaGYTabGIRBvoGqh3KYopDRox1AI69Gjj+3mvd2XVyh1sUxI8VahiNMhXvSPFH101wGeF4pcoRPbdc6KRwrXfbVVglDcYfZ6Cxm8TCgS+CHeoeijuvT3iFB8AoJl6rK8TLHXUfR+gdAm271CIT8tadiDjdcPcdp9+btXKDQf2BAQKI9AzMCcY7y862K7LzcKpWmbOJib6Fsqi0C2jOlnaihIIaFEyiwUxmSC0NjUKllDJ2jfj2OgYfzT+wdARHY/WYRCM1DCs3qD2WwcIrqbE/tCt1lrd+Ils6GgparsOpza/jvb30siDBRwq/bdwC80bA32KgNkDy5iIjRr7ZuGo+iDECl9640Uep9CNm17DiVhfOCKMFxCiA1a7scLwVLv7YKpuHIJzuZtEV0lOoMvBIW3haZtEyo1Ot2izaN7zwGVVFJJJZVUUkkllVRSSSWVVFJJJZVUagQk+zTw1Ni4Orvk7y8pPtVQKhDLR2O0tsc9lGEZ/3Tle+6I0p70RENwI01E/sTm3mLk4fUSCEo6HC/PIfdGDhX7IWwRSY20lzELvCdcICiMErzEqD2450mLwvhFFYaCBIJ8r1oNyhKISgoiR1YWjZWvRGVtVnIBsMul1fwhyGHEmN91It6lLbMHIacg01JcMsc3I6/3VLntCWQkZmi5Bys5ES80WSBD5Ktk+zcT8P2v8PKEk2foIJLOWA+FEpeNTkZL4/lpH6Z1zZ5AVnpQGL/Ipdfw24SCSoGP07T1g/jO41hR30qYjcs8fth5TKOlIx1S5SFhPCyzkVHpwjvfYL5CJCrfND6n2CIMJSr1KTIK+wUHP59ALnTQEFdKkD7pq/t5fsp2d+hEaIb7O/h5L/JM5DKre6TEXxORxD957s3E1jnWJh+t8HLG5rmuEhTxKM+96Zj+DqcCwYeMHpDJS3bud8X85PAIMF6kQJrwlHMsz72z+O1P8c/nJWxsc3lu38C0xgmysvADQpcRRuNHj0mUb75WeJhPGG6gGcjPSiSMBLyM4vkpRKwfIoTOSVgJfAHNlyX8vtG2vFhZT6LAv+JBCXUjUu3VxGc234VpVEnuqeNHy2VuqWtk/taXKJRS5MXI9yG3kFgvLuO5vQHrbaErnrrHCTN+RcLP0erLszz3A5CHcUyVaLm/Avk+zMNlF4VB3v9gm9tm/F5vR+/ZQ8gxgew1hBVB3es0Ea9QSOVPrNh/upAcrSvcz3PfKQLtISQGC+BN+wMIFcoDWMFkJHwu4rU38Z1N+O5vIt6534E+CXMFITpooIQV+wUyecsUL3sFeROyM124WqLkm6Nw/+uKQJTiLIbKKJhDyP+H3APZnxMSRY6X2clLoERJP4rf6uoNAuELdw928HyFDEIqRx6Kf17i+fkWFz75Hmdu29JWFIpW6QIp5rn3g53W+r4YowKf741cZcOOFCzf9tVtRZbnGgr3NbA/YeSK0gUyneeeH1bcOeSstNh4A17/zkURXhVbOZwBY819HDzPd3KM2GW6YRzqruNlLM/vQViWWUoWyH/s3KeWvIMBhkLn77r47Xyee7OxQpryoIn0yESe59eKSG8hCqLSqiukwOgWnufuwfT6KVIgnBNYLtO3Sd/wmfGXCXEcCo8iU/o37HzjRD3z0N2OnlyD6foo1coSc2rLeJHfHujgtxacjrB3OEkPqcxeO/evKlIg2IpyBXRLH5KJivwjOBkXt/k2OXb/cCFbw/DdTRKVj8Iwj/H85IsoWaFIPwQz/TpeaKzjsM1PczlBvGr17Dc2XZGfk2+/Q8qUviUgK59x6S11Idrh4yAPZDnyHWl6BwrlXrdOev42/1BIE1/9E3qt5hGNRtPOOvGGNPtapfoRY/O3mWEKjGbm6wtlFZOfbZ98w515cUu7/PnQ4Tt8dJqftRpNmGKFwqgN0xsIwXK03GS+++HEuO1eD5Bv8gtDm/gaftdpNBmqaJXSJzeMzsfEMGsvllUOfTYjucwrAYLgaBXso9+FWiNCbaCqlpKDECT7LpVXdXsuI+m6XGnINsHBX6/7FPEXYRbdKBgF9X0qKZk0Gkhv4qP7F/75oldpkE9yDzRv5m/YjdojqrGYEaoR5zGfJK/gwvXsj27tKMtpr7JoEJPZ7GNGBo0am1JhLDtAfJv7+VA79h6AmKEeexioNrxKogAiT1uTFyAMaRFs0KoCacCakFEIQBjRZ9V7HCBUeWbVmJDFPBPS5zQmTctqELOXAYS0h9kMDW54nFFBr0QfRFa5yKRBzJhxaRCiNkmVnJtY3uaDmGkQR23cKsnf8Xmnk84y4/7aUkn+hq0wWbEmltdpEFJ7DdAHUX0iBZpYMgeEZAvzmtVBC1U5ukWDgPf5IGyYV4EAURtrwwSI10WxKC4tNUAYFSEq2dMgZm8cKGTU9uqMTNwocBMfA7QNCoBykwmOl5ajwM1qyxfsg8jbjtzqgzRmQFB9ECB8dFqIDgqETmGhkBASBL662vuQjf3yO7juHwTdMrNo0qfHw0aM4uu1uqPxOoA05nEQKrcRG7dWo4GW/n7QIawppDdrCqG+Pk7f9UNtsmp7DuzM3QXdO3eFju0zWI3CqEEPjyBYpnEQplFFsaxNpZTQJpDZIhTaoMnkSpQ7NDCQfU+r0cKWHTks39I5GzqkZ4DJZFIBYcEFc/NqMqthXkWZSkZkPzSN2jUJRDA0g8SQYDSVpNmxJyI0pKZT1HDrabbu2M5yVxYo7cFoMje6uf+Mg/veN5tX5ti0O4Vi4kyl8EB/6BgWAhnNm0KIAFPJVYoOaw46bW2wWYCyDUFC3CUrG9qntce8mRp9pIPxzqkmDJdp75IeqWrKOwGAfIYsNJWiggLcmofo5s3BV69nfQ6NzYpMy/9zdm5nORuBkp6WjqaXGRorUhiZm5lerlwzMs+ylCaQYAY/vQ7imwZDdstmkBQaDD5az25uGNksFEIC/OHi9VLQ2VmybAHKdgQJcefMzpCWmt4ofRSG8UITy8yNg2g19S+8VL0MRZWowUUG+aNmaAYZYcKiSu6mFsFBEB4SAueuXqtjatkDyo5dO1jO6tQZUhEojSnqxTBeOg4it20oBBTEXVqGwq3hYW43lVwlHzSv4lq1gF1HhZ9SZAHKzt07WO5kAYrJ3OAnNHqpk14d9tR4sFfx1Wvh5U7J0NzPx+uEnhYZAXNhp+j3LEDZjSAh7tgxC1IaOFAYr5yLxZlZHpvtjglfq6qCucXH4bHUdmwUytsAYtC5ftKXBSi5uTtZ7tAxE5JTyPQyNbjoMGupyGiqyKNBuDXpnmyXOtBC7vnL8GluITzTIQEMWq3XCD2+dStoFhgIf964US9wW4CyJ3cXyxkdqoEiZXjY05qJAfDG9SCeNbFqQIINpOjKdfhgZwG8iOZWgF755y+evnwZFu/KBaNZuoiUBSh79+xiOT2jEyQlp3OTIr1bpXhlmJcBxyOfLlpNLn2DGsepGxXw2tY8iDSWwoljR+G5QQMhpoXnT2KgQcjNh4ph+uat8Nu+ArhUWso66XpO20ltGlqAsm/vbshDoLRHHyUxOc2rw8MMeOFAoWXBlEbqnqIeVG40wWFtAFxr0Rbm7DsIL/d1P0DOXb0KC3fuhplbtkP+iVPsOAwNCloaboCPT02QoxIbLQFFJ4NpSOkR70OQEKej6RWflIrOvMnr9AkD4I1r0qtZca6xyQz+fv5AhwwfvlrKzqWSU3Dbig6z2mHV3ny4cP06+KDjreecbwOaewbuyG2aW1VpMkJoQAAMSE+FcbfeAt0T4uCVmXNh8oZNNcCRAyisRuGAktq+E8SjRjFzGsWuf8EoCyDeF+alKRtaM2gU2h1VYP5mHjwKr3ROsTtaLZYuXLsGS3bvhV+2bIO9x06wA5O82gG5ssrI9h7JEa3hni7ZMDK7E0SG1j2g+IkBfWHx7j1wvbxC1kicJY/783aznJLeEeISU1g5eocG8cIVhZ6IbjACfRiaeFvw51VYdPgkjIxr41JaO0qOwC+bc2D5njx21NvAaodqc0hvpSnIz6gwGtnpI31SklA7dIOeSQmCwrjtWraAB/H5f69cLZsW4QNKwb5clpPbVwNFyeMoDHjtikJlmVi2lUhh34XFJ9l1G11aNXP47kU0j5aidpi5NQd2HzkGVWaaw3VTO/j7GG5qBwQD3U0MbwWjs7NgFHJU82Yu55u0CPktJ/68XOO8uwsoB/JyWU5K6wDtElOrp7AoDCjeaWJxkQWlD89ptBr4Oq8IggzJkNqsSc393GPHYcbmbbAMQXH6ypVavgOfdgj284PeKYnwAPb2pCXqM8hnS82CAuGlwbfDU1NnuA0gtkA5mL+H5UQESiznzCu14/MOgLC73XlHPIQ03ce5hVB19gT8tnE9OsvoOxgMNTa/tWlD2oHKFdeqJWqGTLi7azbEhDWXPY/3dusC6w8UwpycHeBnMLi/I+HqohBBUpifCwmpHSAmIUURcmY7Y28bSTcznh9JF0NVRhNowiLgtuFj4eC+XXC8uBBMmHnSDkG+vqzPcP+tt0Bf1A7+Pu6b23X43HmYsmETzNu+k53+7glw1AWKBg7t38tyfGoGAiVVsgFHxsV3vM4Hqa/q80inxFQvluqc1RVeGDoYujYLQu3QzK1ZOH7xEvz4xyb0dbbD6ctX2CiYZRzEYrYJPSPEHRqlCEFShFolDjVKNAsU95teXhnFMnONTeOFsxgulJVDVHCAW8BBIKBxkumbtsJRBIf1KLr1oCFpMn/UHgMz0mBoxwx4c/5iQetF3AIU5OKCvSzHoUZpm3Az6qUR2MCl8He9zkmXEhvutHNJqB/vOggPplTAiHaRkn6bomHT0fn/eeMW1nwiZ9+iGWwB4aPXQe/kJJjUrzf0RtPOmsjkG/rJF1By/oKkAYH6apRi1CjE7RAoUXHJbpnrJfdIuizaesTSTeEGnWY3frwVeClVYC/YO7IFPNch0WVf6vKNGzB723b4ccNmOHjmLKsd+Bp0RZURdDotdE9oBxMREAPSUp1qhyqTCcZ/PwVW7Mlzq18kpkOLTUGgxCfLOs0eP1tYZTRnLrqzR6nXAGT4EvcAxNVKFzLxkZ6pwgTCA/zgnW7p0EzAwqtr5eWwYMcumLx+EzvXSqvV8AMCNQRFybq0i4HH+vaCOzLSWfPKFZq5JQeenTaTBZ9GYVERC1BiECht2iXL4qOwADGZMxd7E0CGLd6IANF6tQapZeOioJ/uEA/92rSs9duNigpYvGsP/LD+D9hz9DjbQPkaOoWHiTpFt2UBMbRThqQRqVLMxyM//Air8wpqBi2VCJTo5PYQiaYXI2Fc1qJBlgz3IoAMJYBoNQ0CIDWNHIWaERYCnQxVMHndethRcpS9zw8IE9so2kdFwiN9esCIrE4Q6Osrex6PXLgAD307Gfah9lIyUNompXNAqf+UJAKI0cRkLvUmgAxBgOgbGEAspEWT6c+zp6A4NweMVZWgQdOGxlGMjBmSw1vDI717wOguWdDE399jeTxz5Qo8N20W/JqXz2oqrUJNLwJKRFxKvZx5C0CWeRNABi9quAC5iRR0oi+fh0GtgmBUl84QFhysyGzSION7i5ezES93g8XZmI0FKFFJ7SG8XRI3e5hx6BvyEOuDrBjRUxaAeEWYV34xukDocFYGhsJOjT8MBuUu5R3FTZgk2nyoCL5avQ5+P1AIZZWVtQYiXSWjycQu7qL5aGTWXbp+A2JaNGcDD4M6pMOBU6fhjbmLqhfQ2dkp8sTBPDiO3CYxDcItGkVEBEbOtiZLd3LHgj/CdVpo2BrExj+JDPSHVzonQVJoE6/J97GLl2Dd/gOwJr8A9h4/wQ4+VnBrVWidjJZbecgXHaPAw5O39YWnb+uP2jPIYTq0VmbEf76CwtPn2PEdByqF1SqRCJTW7ZJraRSHGsTMZK66q5f3mFi3NzKA1PSmKFBfMMMjiRFwZ2qCV5eFZipT2JoWa1G0rsJkqtkvmGY3B/j6sDuviAk+PDdtJkzbtNV5BI+pdt0jE9OhVSyZXianAPlVJoDIZmJBIzxAh3pdI5pb3xWdg492HYIE8zV4bWAfiGvtff0EmV4hAQEsS0VNAwQGLkhr4eVk4T6WIwgoMdVAYdxsYsl2/AHTmM9IxwoIDm4CZ7Wh8Mi63XA8bzvckRADfx02mD3eoDHQeTTXJm/YCMtz89hZBOSrkM8jZvzHYtqdRpAQhyNQWiJQbKNeXrdpg5SoZiSwBz22ZsFkBD//QEi6pT8cLL8BfT75Cq5cPA/Zce3g8QF9YHCH9i6PoCuBCk6eggOnz8BdnTNr+Rvk03y5eh0cOnuOHeG3sOuOwE2gnCrMg/D4dGgRm1gz4Oh1TvqA+RvCtRrYDY3MB3FGWmwkFWWlcGxPDty4cgnQdmano7RvEwmjumQiYDIUqWFo1nFO8WFYvW8/bCosYpf/UqdjDW5y6CkyZtDpa9bmy6mhCRThCekQFpNYCDp95qqhXb3HSe8/fz0CROM6QBq486LR6qCq7Doc21sNFK3VEl4ahdchaOgotk4xbeHWhHjIiolmN3AQbMOL1K60GOvohYuw78RJ2HXkKOw5doL9/9WycraFsBtSKHLrVtbRLQwIbZ556O2/e5GTzkCD33a/XvVjRlfe1w/ade2DQLkBxwkoVy8hMHTg76PlTJXrsDpvP8vUiAk8tJUQjSdouTlfNO5AKx4pkhSA7GfQsxEmGt1nN58zGtmJkWUVlVBKXFnB/k33TJx5ouU2p9PxhHOVOF3Ftn+nfQXkXCMvI0BUclpPJjPofPwgtksfqLxRCifycqDs6p81GsXaWbXeLMJCNGZBTBpADHmz3+NuUkfSFaFRzKD384fYrv1Y04uAUo5AIVNMpQYJEAbUc+9d0ShGVqPEZJPpVQon87bzahSVvBwgKkmgUXz9IaZLXzS9rsOpfahRrl1WNUpDAoiqQKQAiok1vaI5oJzetx1NLwSKqlHc1tZkc9JVktaZ1/sGQNvsah+FNEqFqlFUE6vx9oiMHY1SHR6OzuY0Sv52FShe6aQr8nCQhkMU9ycfpW1nAso1OENAuX6l8QLFG49gU8ldPkoARKHpRUA529iBogJEJUdAaWMFlMpGBRT5WpxWbV4NCygGTqNEdekPhoAgZ4uNvB4YWr0PtEzr6n1OuhrJ8mCzIR/FLxDadO4HVRaNUtrwNAq1sYCw1hDXbyBs9TITqwx99DJVqXteo+hQo0RmVwPlXH4OAuVqgwAKw5jBJ7AJhEQnlV49c6HSq0yszWP6XsYGtMIyJ6shsjf6KJHZ/Vk2+Ad6t+mFqkNn8IWWqdkU9p6/JLNFlTf6IC8j56kGj8KA4l+tUYj1XggUyq9PUFOIyO5L+V9rNho/kDM9WUcrbpm5Rq/RaGbin6PU5qk8Yhduocl1fv8OxZteND9NqzdAi5RM8G/emoDy9ZYx/Z6UvY7cUbhus9bG4mUGYUZtlsoECjnx5/N3sL6KUoBCfgaZU/6hLaBZfHswoM+BwFiBPz2E4Djvlrpxd6ERLL3x8jTyAOSmavNUoEYp2MVe3X7IJG1Wh1qCnO+AsHA2QoU+xgXUHssRKF8gKHaoUlJJJZVUUkkllVRSSSWVVFJJJZVUUkkllVRSSSWVVFJJJZVUUkkllVRSSSWVVFJJJZUaFHn97lWpsXEP4uVjcLzQj8q5Zn9J8VhV5IqU4V/w8o4AGS5HGT7szrwJWpOeFhuvZYCh837dsQtKFVaCmDXGdOxSCwHPhahNUbEUIFCGbl8eobdBMi1sehGqVwC2ttx382lR7yK/rrYZlZRAeg4YSXhZhxyugDyZVLGopBiAIDjS8LqdM1VUUkklKyKf4g0VHCqpZN/E6u7iu8eRTyJfJccapIuIFapiUUlJAGkj4vktyHfsLym+2pgrDc3SQLwkIqcgt4Pq8+CbIPuI+Iwf904wchBUR3L8ufu+3LeuIXfA+j4iYd4p3yOQByG3R24u8NWLyAXIvyIvxDzlNRaACKULyKMbIziwUVFjfZHj5m5MmgIWjAT5fwwvb4FVZNIFonL34Pgt/CbdO4P8AraJXxQru4QsAOPlKfjnwwJfoWDVcCzTNbEAOYp8rpEBg+rnB+SHvDDv5F9+hvyUjMkQ4GZgWpNJK2GjWqWwOohCcGzEP9sK7IzGYRlm2jrpKvFXbhheDngpOKjhHpYZHLbm4kpM9wkF1QHNmjgiEBwUxQ2zBYcKEPuVSz7BeuQ4L8y7AS8LkKMFvrIHmbbwTOfMKH+4ObKN9gn8VUTg5N/csIEHyx+vxTzMguqdPIW070kIjC7Il+vrgzQmepXqWsTzp7h35mNFlwpoxJF42QfyTH/pBcK2eN2L3NOBT1nG+Z27kD/CPNMg8jbkKAffpOAC9dyve6hziEGXbTMIG/CmgENfLP9ZqZz0eOqZMBNmkCakW845eCcU1gNThOpuEa88i2X4XGQy/iDfRNEogc/9LCbggs+exrp5Dv+c5+TRJA/JbQJe/ifw8dewPO8JeVAMQGii2FAJy0ROfykoj0jAsQKf/coFcMhNFwU+dx82qs9FTgxdwWknR+C+5IFAylzk4QIep7G7XmLC5p40sY5pQHNZoQAxCHiOwP2FAvNPZhCFX52FdDshX8YG9glnrx/FhnPDiRYp476vFG1PstqA3FLA4x9h/v8qNg1PAqQov6RIiYc1RQh8Lg870iKlZR4bwTlsODTm8bVAU+91i8/AjW1YiGZH0BEDRzh7PZ/jAkzjuALAQYGFLwU8SkMT/TDP+a6k40mAHFKogx4gVAPuLylS5MxjbAzfcI3963p8xsB1FsTdbRqn5U+KgL2J6S10U9FMmDYdXrIU+Q4Bz3+HLXzS/kPFLicoJsybixzGRV6k4I8VChChdaLoQ0oJJFA9jeVnGZPpwAVuGOTX3FAsCiGfFggOCgJtqg84xGoQ6i2vYMUboWGTULNP8SsUUVbX8UJLkh/EBkxz7sYg3wXVc7CaSJzcO5gGBXH6YLoVMhUpWcSzNHg5FfNEg6U0f/BPbzOxlEpCKzKSIije0mFw4fRPOLa15ykq1Ywzp+K4hpjKaYh0EVqVIlykuSYoqOhdkC9iGSdiHfxXBUj96YgIdU8zY/d7e4Gx4ZDWvMhxHg+AyB+hCX/3C/jcGHz+//CbB9yQddJUlZwp6YioA/ge8/U057BfUAHiOlG04wo43yCAIkBvg8gTfFFIND2eBtwCZYjs0BSZeCePUYM6iI3EJAJAFNEah99vLsD+D+A0j9wAoflTA2iwkwtVvyDgHTItz+Pzz+B7X6gAcSV0Yw48XKUtpRmgQwQ8PhIrm+Yp3YMVnmun0ZLZMhGZtrZpLXP2ae7U706eobEOGgNxZWHaToEOsty7j7yE9f2JFYBfxHqmWdc0Vb2VgPc/x+cf57TJGRUgImjP0b3UqD+F6gVFQmzvBOTdXOizgouykKlCEb9oN2f/sADtRz38F5jfwWK0CKedhGpLucaHaAVrb8x3MY+Wo7Ga1phP0gxCZjHTYjeaPvMyvvuxChBxNvkarDgahHpG5Ks0WS+GY0/k+zjmew7++aiTRwciG/FZmjBJM3+3cL7XZc4EY7iytOKcXJryL3Rp9ioBWsxls4oPHDZ18DSW63v88zcQOMLObVzXj29eoAoQ+/QcF9UZ7WX5JkeUIk9CZvSmcyylXzASG5rZwx0cBRpaYcOniNokgVYAdS5v4LtvW/+grgdxENlBvpsDihREvRNNiW+O36WoCk3JPi5DvsuRu+Gfr7mxusivuY9bV3FDQTJ8nPPLhIbuaSlxSfW0eRUgQiv5M65B07ruUyIbDcXdU+h95CjkD5Evcd8l55Am222VKd/vcfmmYIMcEwxpsiaZMjGYTqBS16Vjvmg9C0XfJgt8hcBBIGE1iQb/GC/gJapoih0v9bT65HEeMzibmuzmKrg5Em6Cm7s00r0jmPdfJUqTKjybs8+pkVN0imLxNDHuczHppMXGaxhgaKp2M6g7ik/+wCJuRFyq+iKzkcKdHbi8R3EBhVAuDxR+pvlOtGkBTVakBUW0NCGPA9ouV0elHeSJxpS6gvPNq2nG8Zp6pJMkwpci5XH6/wGCYOGPewRFRQAAAABJRU5ErkJggg==;" vertex="1" parent="1">
                    <mxGeometry x="260" y="242" width="40" height="48" as="geometry"/>
                </mxCell>
                <mxCell id="48" value="&lt;b&gt;&lt;font style=&quot;font-size: 17px;&quot;&gt;Bechdel Prediction Process Flow&lt;/font&gt;&lt;/b&gt;" style="text;html=1;strokeColor=none;fillColor=none;align=center;verticalAlign=middle;whiteSpace=wrap;rounded=0;" vertex="1" parent="1">
                    <mxGeometry x="60" y="140" width="330" height="30" as="geometry"/>
                </mxCell>
            </root>
        </mxGraphModel>
    </diagram>
</mxfile>